<svg width="5013" height="411" viewBox="0 0 5013 411" fill="none" xmlns="http://www.w3.org/2000/svg">
<path d="M2109.9 410.998H2004.78V98.2979L2109.9 2.5918V410.998ZM1920.32 410.994H1828.78L1438.99 154.383V410.994H1337.28V77.4707C1337.28 67.2505 1340.77 57.9487 1347.95 50.5674C1355.13 42.4061 1364.66 37.9658 1375.65 37.9658H1428.81L1818.6 294.577V103.304L1920.32 0V410.994ZM959.03 37.9619C981.718 37.962 1000.48 47.2725 1013.87 65.4424L1013.89 65.4756L1266.94 410.99H1129.87L960.128 178.142L789.299 410.99H653.387L906.261 65.7207C911.991 57.2144 919.293 50.3783 928.134 45.4668L928.41 45.3135L928.692 45.1719C938.244 40.3962 948.412 37.9619 959.03 37.9619ZM2692.64 141.947H2381.44C2358.85 141.947 2339.82 149.845 2323.6 166.071C2307.46 182.211 2299.47 201.574 2299.47 225.044C2299.47 247.635 2307.37 266.656 2323.6 282.882C2339.82 299.108 2358.85 307.006 2381.44 307.006H2801.35L2692.64 410.99H2381.44C2347.92 410.99 2316.67 402.785 2287.95 386.372L2287.68 386.219C2259.25 369.158 2236.37 346.705 2219.23 318.955L2218.96 318.533C2202.55 289.811 2194.35 258.556 2194.35 225.044C2194.35 190.842 2202.53 159.511 2219.06 131.401L2219.13 131.292C2236.26 102.741 2259.2 80.1723 2287.82 63.791C2316.54 46.5908 2347.84 37.962 2381.44 37.9619H2801.35L2692.64 141.947ZM3582.35 410.99H3067.58L3184.17 307.006H3698.94L3582.35 410.99ZM285.927 149.803C288.871 151.222 290.665 151.479 291.521 151.479C294.186 151.479 295.19 151.02 295.339 150.943L295.946 150.488L489.639 36.8242H583.042V410.988H479.057V171.695L309.955 267.892L308.604 268.342C302.955 270.225 297.217 271.357 291.521 271.357C286.296 271.357 280.84 270.097 275.574 268.342L274.24 267.897L103.985 171.622V410.988H0V36.8242H93.4033L285.927 149.803ZM4045.73 149.802C4048.68 151.221 4050.47 151.479 4051.33 151.479C4053.99 151.479 4054.99 151.02 4055.14 150.943L4055.75 150.488L4249.44 36.8242H4342.85V410.988H4238.86V171.695L4069.76 267.892L4068.41 268.342C4062.76 270.225 4057.02 271.357 4051.33 271.357C4046.1 271.357 4040.64 270.097 4035.38 268.342L4034.04 267.897L3863.79 171.622V410.988H3759.8V36.8242H3853.21L4045.73 149.802ZM4531.29 257.962C4531.29 271.586 4535.86 282.627 4545.2 291.961C4554.53 301.295 4565.57 305.868 4579.2 305.868H4859.59C4873.22 305.868 4884.26 301.295 4893.59 291.961L4893.9 291.649C4903.9 282.24 4908.63 271.294 4908.63 257.962V36.8242H5012.62V257.962C5012.62 299.734 4997.41 335.95 4967.49 365.864C4937.58 395.778 4901.36 410.988 4859.59 410.988H4579.2C4537.42 410.988 4501.21 395.779 4471.29 365.864L4471.15 365.719C4442.04 335.774 4427.31 299.603 4427.31 257.962V36.8242H4531.29V257.962ZM3582.35 275.901H3067.58L3184.17 171.916H3698.94L3582.35 275.901ZM3582.35 141.947H3067.58L3184.17 37.9619H3698.94L3582.35 141.947Z" fill="white"/>
</svg>
